# xmcd CD database file
#
# Track frame offsets:
#	150
#	14392
#	48889
#	62247
#	79223
#	95910
#	113027
#	123163
#	138769
#	155050
#	164810
#	187074
#	207549
#	220973
#	245316
#	264139
#	279995
#	292610
#	309832
#
# Disc length: 4456 seconds
#
# Revision: 0
# Processed by: cddbd v1.5.2PL0 Copyright (c) Steve Scherf et al.
# Submitted via: CDex 1.70beta2
#
DISCID=10116613
DTITLE=Anachronic Jazz Band - Anthropology
DYEAR=2009
DGENRE=Jazz
TTITLE0=Yardbird Suite
TTITLE1='Round Midnight
TTITLE2=Anthropology
TTITLE3=Blue Monk
TTITLE4=Tin Tin Deo
TTITLE5=Jordu
TTITLE6=Pent Up House
TTITLE7=Bernie's Tune
TTITLE8=Move
TTITLE9=Giant Steps - Blues for Bechet
TTITLE10=Joy Spring
TTITLE11=Duke Idea
TTITLE12=Anachronic Stomp
TTITLE13=Ask me now
TTITLE14=Salt Peanuts
TTITLE15=Daahoud
TTITLE16=Be Bop
TTITLE17=Anachronic Blues
TTITLE18=I hope Gabriel likes my music
EXTD=YEAR: 2009
EXTT0=
EXTT1=
EXTT2=
EXTT3=
EXTT4=
EXTT5=
EXTT6=
EXTT7=
EXTT8=
EXTT9=
EXTT10=
EXTT11=
EXTT12=
EXTT13=
EXTT14=
EXTT15=
EXTT16=
EXTT17=
EXTT18=
PLAYORDER=
